<svg width="20" height="20" viewBox="0 0 20 20" fill="none" xmlns="http://www.w3.org/2000/svg">
<path d="M12.6457 1.42342H16.6919C17.8077 1.42342 18.715 2.33064 18.715 3.44649V7.49263C18.715 7.7708 18.4874 7.9984 18.2092 7.9984H16.5654C16.3568 7.9984 16.1861 8.16909 16.1861 8.37772V8.50417C16.1861 9.06367 15.7341 9.5157 15.1746 9.5157C14.6151 9.5157 14.163 9.06367 14.163 8.50417V8.37772C14.163 8.16909 13.9923 7.9984 13.7837 7.9984H12.6457C12.3676 7.9984 12.14 7.7708 12.14 7.49263V6.48109C12.14 6.20292 12.3676 5.97533 12.6457 5.97533H13.1515C13.711 5.97533 14.163 5.5233 14.163 4.96379C14.163 4.40429 13.711 3.95226 13.1515 3.95226H12.6457C12.3676 3.95226 12.14 3.72466 12.14 3.44649V1.92918C12.14 1.65101 12.3676 1.42342 12.6457 1.42342ZM2.53038 9.5157V5.46956C2.53038 4.35371 3.4376 3.44649 4.55345 3.44649H8.59959C8.87777 3.44649 9.10536 3.67408 9.10536 3.95226V5.09023C9.10536 5.29886 9.27606 5.46956 9.48469 5.46956H9.61113C10.1706 5.46956 10.6227 5.92159 10.6227 6.48109C10.6227 7.0406 10.1706 7.49263 9.61113 7.49263H9.48469C9.27606 7.49263 9.10536 7.66333 9.10536 7.87196V9.5157C9.10536 9.79387 8.87777 10.0215 8.59959 10.0215H7.58806C7.30989 10.0215 7.08229 9.79387 7.08229 9.5157V9.00993C7.08229 8.45043 6.63026 7.9984 6.07075 7.9984C5.51125 7.9984 5.05922 8.45043 5.05922 9.00993V9.5157C5.05922 9.79387 4.83162 10.0215 4.55345 10.0215H3.03615C2.75798 10.0215 2.53038 9.79387 2.53038 9.5157ZM2.53038 15.5849V11.5388C2.53038 11.2606 2.75798 11.033 3.03615 11.033H8.59959C8.87777 11.033 9.10536 11.2606 9.10536 11.5388V12.5503C9.10536 12.8285 8.87777 13.0561 8.59959 13.0561H8.09383C7.53432 13.0561 7.08229 13.5081 7.08229 14.0676C7.08229 14.6271 7.53432 15.0791 8.09383 15.0791H8.59959C8.87777 15.0791 9.10536 15.3067 9.10536 15.5849V17.1022C9.10536 17.3804 8.87777 17.608 8.59959 17.608H4.55345C3.4376 17.608 2.53038 16.7008 2.53038 15.5849ZM10.1169 11.5388C10.1169 11.2606 10.3445 11.033 10.6227 11.033H11.6342C11.9124 11.033 12.14 11.2606 12.14 11.5388V12.0445C12.14 12.604 12.592 13.0561 13.1515 13.0561C13.711 13.0561 14.163 12.604 14.163 12.0445V11.5388C14.163 11.2606 14.3906 11.033 14.6688 11.033H16.1861C16.4643 11.033 16.6919 11.2606 16.6919 11.5388V15.5849C16.6919 16.7008 15.7847 17.608 14.6688 17.608H10.6227C10.3445 17.608 10.1169 17.3804 10.1169 17.1022V11.5388Z" fill="currentColor"/>
</svg>
