<svg width="20" height="20" viewBox="0 0 20 20" fill="none" xmlns="http://www.w3.org/2000/svg">
<path d="M11.6231 13.5449C11.0449 13.7692 10.4274 13.8751 9.80735 13.8563C9.18733 13.8374 8.57742 13.6943 8.01386 13.4353C7.68225 13.2745 7.3975 13.0313 7.18686 12.729C6.97622 12.4267 6.84672 12.0755 6.81077 11.709C6.8209 11.5817 6.86532 11.4595 6.93931 11.3554C7.01331 11.2513 7.11413 11.1691 7.23109 11.1176C7.34804 11.0661 7.47676 11.0472 7.6036 11.0629C7.73044 11.0785 7.85068 11.1282 7.95155 11.2066C8.24816 11.5047 8.27975 11.8501 8.57635 12.2263C9.20115 13.1206 11.4511 12.9014 11.4976 11.7081C11.5134 11.1899 11.0755 10.9076 10.6385 10.7665C9.26784 10.3588 7.00207 10.265 6.97224 8.3659C6.98715 6.82719 8.56494 6.34147 9.92423 6.34147C10.4308 6.29294 10.9414 6.37581 11.4066 6.58208C11.8717 6.78835 12.2758 7.11104 12.5796 7.51895C13.0956 8.42903 12.2514 9.10414 11.6143 8.66488C11.2554 8.33522 11.2396 7.94331 10.786 7.61277C10.2077 7.20507 8.52107 7.28311 8.44297 8.24053C8.44297 9.13482 10.177 9.16639 11.3642 9.57408C11.8252 9.642 12.2489 9.86576 12.5647 10.2081C12.8805 10.5503 13.0692 10.9905 13.0995 11.455C13.1298 11.9195 12.9998 12.3804 12.7311 12.7607C12.4624 13.141 12.0713 13.4178 11.6231 13.5449ZM15.966 10.9401C16.1137 9.97124 16.0314 8.98127 15.7256 8.0501C15.4198 7.11892 14.8992 6.27263 14.2057 5.57956C13.5153 4.88937 12.671 4.37244 11.7421 4.07115C10.8132 3.76985 9.82604 3.69277 8.86155 3.84621C8.19543 3.28048 7.34414 2.97963 6.47015 3.00107C5.59616 3.02252 4.76068 3.36476 4.12316 3.96247C3.48564 4.56019 3.09073 5.37152 3.01381 6.24162C2.93688 7.11172 3.18332 7.97966 3.70609 8.67978C3.48352 9.70092 3.52004 10.7614 3.8123 11.7649C4.10457 12.7683 4.64332 13.6828 5.37953 14.4252C6.11278 15.1655 7.02112 15.709 8.02046 16.0054C9.0198 16.3018 10.0778 16.3415 11.0966 16.1208C11.7908 16.7272 12.6933 17.0409 13.6143 16.9957C14.5352 16.9506 15.4028 16.5502 16.0342 15.8789C16.6656 15.2075 17.0118 14.3176 16.9997 13.3964C16.9876 12.4752 16.6183 11.5947 15.9695 10.9401H15.966Z" fill="currentColor"/>
</svg>
